<svg xmlns="http://www.w3.org/2000/svg" xmlns:xlink="http://www.w3.org/1999/xlink" width="50" zoomAndPan="magnify" viewBox="0 0 37.5 37.499999" height="50" preserveAspectRatio="xMidYMid meet" version="1.0"><defs><g/></defs><g fill="#3641f5" fill-opacity="1"><g transform="translate(4.506565, 34.296824)"><g><path d="M 4.21875 -0.171875 C 4.695312 0.00390625 5.144531 0.00390625 5.5625 -0.171875 C 5.976562 -0.410156 6.28125 -0.769531 6.46875 -1.25 L 13.1875 -21.171875 C 13.375 -21.648438 13.347656 -22.160156 13.109375 -22.703125 C 12.921875 -23.179688 12.617188 -23.507812 12.203125 -23.6875 C 11.722656 -23.863281 11.273438 -23.832031 10.859375 -23.59375 C 10.441406 -23.414062 10.144531 -23.054688 9.96875 -22.515625 L 3.234375 -2.6875 C 3.054688 -2.15625 3.085938 -1.648438 3.328125 -1.171875 C 3.503906 -0.691406 3.800781 -0.359375 4.21875 -0.171875 Z M 22.4375 -1.25 C 22.613281 -0.769531 22.910156 -0.410156 23.328125 -0.171875 C 23.742188 0.00390625 24.191406 0.00390625 24.671875 -0.171875 C 25.097656 -0.359375 25.398438 -0.691406 25.578125 -1.171875 C 25.753906 -1.648438 25.785156 -2.15625 25.671875 -2.6875 L 16.25 -29.78125 C 16.0625 -30.320312 15.757812 -30.710938 15.34375 -30.953125 C 14.925781 -31.128906 14.476562 -31.128906 14 -30.953125 C 13.582031 -30.773438 13.253906 -30.445312 13.015625 -29.96875 C 12.835938 -29.425781 12.835938 -28.914062 13.015625 -28.4375 Z M 22.4375 -1.25 "/></g></g></g><g fill="#000000" fill-opacity="1"><g transform="translate(13.191757, 33.049299)"><g><path d="M 1.5625 -1.9375 L 1.53125 -1.75 L 0.65625 -1.75 L 0.546875 -1.078125 L 1.328125 -1.078125 L 1.296875 -0.90625 L 0.515625 -0.90625 L 0.390625 -0.1875 L 1.28125 -0.1875 L 1.25 0 L 0.125 0 L 0.46875 -1.9375 Z M 1.5625 -1.9375 "/></g></g></g><g fill="#000000" fill-opacity="1"><g transform="translate(15.15984, 33.049299)"><g><path d="M 1.5 -0.6875 L 1.71875 -1.9375 L 1.9375 -1.9375 L 1.59375 0 L 1.359375 0 L 0.703125 -1.421875 C 0.691406 -1.453125 0.675781 -1.488281 0.65625 -1.53125 C 0.644531 -1.570312 0.628906 -1.613281 0.609375 -1.65625 C 0.609375 -1.601562 0.601562 -1.546875 0.59375 -1.484375 C 0.582031 -1.421875 0.570312 -1.363281 0.5625 -1.3125 L 0.328125 0 L 0.125 0 L 0.46875 -1.9375 L 0.71875 -1.9375 L 1.359375 -0.578125 C 1.367188 -0.535156 1.382812 -0.492188 1.40625 -0.453125 C 1.425781 -0.410156 1.441406 -0.363281 1.453125 -0.3125 C 1.460938 -0.375 1.46875 -0.4375 1.46875 -0.5 C 1.476562 -0.5625 1.488281 -0.625 1.5 -0.6875 Z M 1.5 -0.6875 "/></g></g></g><g fill="#000000" fill-opacity="1"><g transform="translate(17.585164, 33.049299)"><g><path d="M 0.59375 0.046875 C 0.488281 0.046875 0.390625 0.03125 0.296875 0 C 0.203125 -0.03125 0.113281 -0.0703125 0.03125 -0.125 L 0.109375 -0.328125 C 0.171875 -0.273438 0.242188 -0.234375 0.328125 -0.203125 C 0.421875 -0.171875 0.519531 -0.15625 0.625 -0.15625 C 0.757812 -0.15625 0.863281 -0.1875 0.9375 -0.25 C 1.019531 -0.3125 1.0625 -0.398438 1.0625 -0.515625 C 1.0625 -0.585938 1.039062 -0.648438 1 -0.703125 C 0.96875 -0.753906 0.898438 -0.804688 0.796875 -0.859375 L 0.609375 -0.9375 C 0.492188 -1 0.398438 -1.066406 0.328125 -1.140625 C 0.265625 -1.210938 0.234375 -1.304688 0.234375 -1.421875 C 0.234375 -1.578125 0.296875 -1.707031 0.421875 -1.8125 C 0.554688 -1.925781 0.722656 -1.984375 0.921875 -1.984375 C 1.015625 -1.984375 1.101562 -1.972656 1.1875 -1.953125 C 1.269531 -1.929688 1.34375 -1.90625 1.40625 -1.875 L 1.359375 -1.671875 C 1.234375 -1.742188 1.082031 -1.78125 0.90625 -1.78125 C 0.78125 -1.78125 0.675781 -1.75 0.59375 -1.6875 C 0.507812 -1.625 0.46875 -1.550781 0.46875 -1.46875 C 0.46875 -1.382812 0.488281 -1.316406 0.53125 -1.265625 C 0.582031 -1.222656 0.65625 -1.175781 0.75 -1.125 L 0.921875 -1.046875 C 1.046875 -0.984375 1.140625 -0.910156 1.203125 -0.828125 C 1.265625 -0.753906 1.296875 -0.664062 1.296875 -0.5625 C 1.296875 -0.375 1.234375 -0.222656 1.109375 -0.109375 C 0.984375 -0.00390625 0.8125 0.046875 0.59375 0.046875 Z M 0.59375 0.046875 "/></g></g></g><g fill="#000000" fill-opacity="1"><g transform="translate(19.491062, 33.049299)"><g><path d="M 1.578125 0 L 1.34375 0 L 1.25 -0.546875 L 0.453125 -0.546875 L 0.15625 0 L -0.078125 0 L 0.953125 -1.9375 L 1.234375 -1.9375 Z M 1.0625 -1.71875 L 0.546875 -0.734375 L 1.21875 -0.734375 Z M 1.0625 -1.71875 "/></g></g></g><g fill="#000000" fill-opacity="1"><g transform="translate(21.700568, 33.049299)"><g><path d="M 1.140625 -0.625 L 2 -1.9375 L 2.28125 -1.9375 L 1.9375 0 L 1.71875 0 L 1.953125 -1.3125 C 1.960938 -1.363281 1.972656 -1.414062 1.984375 -1.46875 C 1.992188 -1.53125 2.003906 -1.59375 2.015625 -1.65625 L 1.1875 -0.375 L 1 -0.375 L 0.609375 -1.65625 C 0.609375 -1.59375 0.601562 -1.53125 0.59375 -1.46875 C 0.582031 -1.414062 0.570312 -1.363281 0.5625 -1.3125 L 0.34375 0 L 0.125 0 L 0.46875 -1.9375 L 0.734375 -1.9375 Z M 1.140625 -0.625 "/></g></g></g><path stroke-linecap="round" transform="matrix(0, 0.740132, -0.740132, 0, 25.486157, 2.96566)" fill="none" stroke-linejoin="miter" d="M 1.497787 1.501296 L 23.527233 1.501296 " stroke="#3641f5" stroke-width="3" stroke-opacity="1" stroke-miterlimit="4"/><g fill="#101828" fill-opacity="1"><g transform="translate(14.661101, 30.161735)"><g><path d="M 3.5 -8.640625 C 3.613281 -8.972656 3.816406 -9.171875 4.109375 -9.234375 C 4.347656 -9.054688 4.515625 -8.8125 4.609375 -8.5 C 4.609375 -7.832031 4.628906 -7.164062 4.671875 -6.5 C 5.378906 -6.476562 6.085938 -6.46875 6.796875 -6.46875 C 7.046875 -6.40625 7.238281 -6.25 7.375 -6 C 7.300781 -5.757812 7.144531 -5.59375 6.90625 -5.5 C 6.164062 -5.457031 5.421875 -5.425781 4.671875 -5.40625 C 4.671875 -4.539062 4.671875 -3.679688 4.671875 -2.828125 C 4.554688 -2.609375 4.398438 -2.429688 4.203125 -2.296875 C 4.046875 -2.296875 3.921875 -2.332031 3.828125 -2.40625 C 3.609375 -3.351562 3.507812 -4.363281 3.53125 -5.4375 L 1.5625 -5.4375 C 1.050781 -5.476562 0.640625 -5.65625 0.328125 -5.96875 C 1.148438 -6.375 2.140625 -6.519531 3.296875 -6.40625 C 3.472656 -7.070312 3.539062 -7.816406 3.5 -8.640625 Z M 3.5 -8.640625 "/></g></g></g></svg>