<svg xmlns="http://www.w3.org/2000/svg" xmlns:xlink="http://www.w3.org/1999/xlink" width="50" zoomAndPan="magnify" viewBox="0 0 37.5 37.499999" height="50" preserveAspectRatio="xMidYMid meet" version="1.0"><defs><g/></defs><g fill="#3641f5" fill-opacity="1"><g transform="translate(3.967847, 34.904703)"><g><path d="M 4.375 -0.1875 C 4.875 0 5.34375 0 5.78125 -0.1875 C 6.21875 -0.4375 6.53125 -0.804688 6.71875 -1.296875 L 13.703125 -21.984375 C 13.890625 -22.484375 13.859375 -23.015625 13.609375 -23.578125 C 13.421875 -24.066406 13.109375 -24.40625 12.671875 -24.59375 C 12.171875 -24.78125 11.707031 -24.75 11.28125 -24.5 C 10.84375 -24.3125 10.53125 -23.941406 10.34375 -23.390625 L 3.359375 -2.796875 C 3.171875 -2.234375 3.203125 -1.707031 3.453125 -1.21875 C 3.640625 -0.71875 3.945312 -0.375 4.375 -0.1875 Z M 23.296875 -1.296875 C 23.484375 -0.804688 23.796875 -0.4375 24.234375 -0.1875 C 24.660156 0 25.125 0 25.625 -0.1875 C 26.0625 -0.375 26.375 -0.71875 26.5625 -1.21875 C 26.75 -1.707031 26.78125 -2.234375 26.65625 -2.796875 L 16.859375 -30.9375 C 16.679688 -31.488281 16.375 -31.890625 15.9375 -32.140625 C 15.5 -32.328125 15.03125 -32.328125 14.53125 -32.140625 C 14.101562 -31.953125 13.765625 -31.613281 13.515625 -31.125 C 13.328125 -30.5625 13.328125 -30.03125 13.515625 -29.53125 Z M 23.296875 -1.296875 "/></g></g></g><g fill="#f9fafb" fill-opacity="1"><g transform="translate(12.987322, 33.609158)"><g><path d="M 1.625 -2.015625 L 1.578125 -1.828125 L 0.6875 -1.828125 L 0.5625 -1.125 L 1.375 -1.125 L 1.34375 -0.9375 L 0.53125 -0.9375 L 0.40625 -0.203125 L 1.328125 -0.203125 L 1.296875 0 L 0.125 0 L 0.484375 -2.015625 Z M 1.625 -2.015625 "/></g></g></g><g fill="#f9fafb" fill-opacity="1"><g transform="translate(15.031154, 33.609158)"><g><path d="M 1.5625 -0.71875 L 1.796875 -2.015625 L 2.015625 -2.015625 L 1.65625 0 L 1.421875 0 L 0.734375 -1.484375 C 0.722656 -1.515625 0.707031 -1.550781 0.6875 -1.59375 C 0.664062 -1.632812 0.648438 -1.679688 0.640625 -1.734375 C 0.628906 -1.671875 0.617188 -1.609375 0.609375 -1.546875 C 0.597656 -1.484375 0.585938 -1.421875 0.578125 -1.359375 L 0.34375 0 L 0.125 0 L 0.484375 -2.015625 L 0.75 -2.015625 L 1.40625 -0.59375 C 1.425781 -0.5625 1.441406 -0.519531 1.453125 -0.46875 C 1.472656 -0.425781 1.492188 -0.378906 1.515625 -0.328125 C 1.515625 -0.390625 1.519531 -0.453125 1.53125 -0.515625 C 1.539062 -0.585938 1.550781 -0.65625 1.5625 -0.71875 Z M 1.5625 -0.71875 "/></g></g></g><g fill="#f9fafb" fill-opacity="1"><g transform="translate(17.549825, 33.609158)"><g><path d="M 0.625 0.046875 C 0.507812 0.046875 0.398438 0.03125 0.296875 0 C 0.203125 -0.03125 0.113281 -0.0703125 0.03125 -0.125 L 0.125 -0.34375 C 0.1875 -0.28125 0.257812 -0.234375 0.34375 -0.203125 C 0.4375 -0.171875 0.535156 -0.15625 0.640625 -0.15625 C 0.785156 -0.15625 0.898438 -0.1875 0.984375 -0.25 C 1.066406 -0.320312 1.109375 -0.421875 1.109375 -0.546875 C 1.109375 -0.609375 1.085938 -0.664062 1.046875 -0.71875 C 1.003906 -0.78125 0.929688 -0.835938 0.828125 -0.890625 L 0.640625 -0.96875 C 0.515625 -1.03125 0.414062 -1.097656 0.34375 -1.171875 C 0.28125 -1.253906 0.25 -1.351562 0.25 -1.46875 C 0.25 -1.644531 0.3125 -1.785156 0.4375 -1.890625 C 0.570312 -1.992188 0.75 -2.046875 0.96875 -2.046875 C 1.0625 -2.046875 1.148438 -2.035156 1.234375 -2.015625 C 1.328125 -2.003906 1.398438 -1.976562 1.453125 -1.9375 L 1.40625 -1.734375 C 1.28125 -1.816406 1.128906 -1.859375 0.953125 -1.859375 C 0.804688 -1.859375 0.691406 -1.820312 0.609375 -1.75 C 0.523438 -1.6875 0.484375 -1.609375 0.484375 -1.515625 C 0.484375 -1.441406 0.503906 -1.375 0.546875 -1.3125 C 0.597656 -1.257812 0.675781 -1.210938 0.78125 -1.171875 L 0.96875 -1.078125 C 1.09375 -1.015625 1.1875 -0.941406 1.25 -0.859375 C 1.3125 -0.785156 1.34375 -0.691406 1.34375 -0.578125 C 1.34375 -0.390625 1.273438 -0.238281 1.140625 -0.125 C 1.015625 -0.0078125 0.84375 0.046875 0.625 0.046875 Z M 0.625 0.046875 "/></g></g></g><g fill="#f9fafb" fill-opacity="1"><g transform="translate(19.52908, 33.609158)"><g><path d="M 1.625 0 L 1.40625 0 L 1.3125 -0.5625 L 0.46875 -0.5625 L 0.171875 0 L -0.078125 0 L 1 -2.015625 L 1.28125 -2.015625 Z M 1.09375 -1.78125 L 0.5625 -0.75 L 1.265625 -0.75 Z M 1.09375 -1.78125 "/></g></g></g><g fill="#f9fafb" fill-opacity="1"><g transform="translate(21.823627, 33.609158)"><g><path d="M 1.171875 -0.640625 L 2.078125 -2.015625 L 2.375 -2.015625 L 2.015625 0 L 1.78125 0 L 2.03125 -1.359375 C 2.03125 -1.421875 2.035156 -1.476562 2.046875 -1.53125 C 2.066406 -1.59375 2.082031 -1.65625 2.09375 -1.71875 L 1.234375 -0.390625 L 1.046875 -0.390625 L 0.640625 -1.71875 C 0.628906 -1.65625 0.617188 -1.59375 0.609375 -1.53125 C 0.609375 -1.476562 0.601562 -1.421875 0.59375 -1.359375 L 0.34375 0 L 0.125 0 L 0.484375 -2.015625 L 0.765625 -2.015625 Z M 1.171875 -0.640625 "/></g></g></g><path stroke-linecap="round" transform="matrix(0, 0.740132, -0.740132, 0, 25.714385, 2.365441)" fill="none" stroke-linejoin="miter" d="M 1.501249 1.498269 L 24.491251 1.498269 " stroke="#3641f5" stroke-width="3" stroke-opacity="1" stroke-miterlimit="4"/><g fill="#f9fafb" fill-opacity="1"><g transform="translate(14.513219, 30.610453)"><g><path d="M 3.640625 -8.96875 C 3.753906 -9.3125 3.960938 -9.519531 4.265625 -9.59375 C 4.515625 -9.40625 4.6875 -9.148438 4.78125 -8.828125 C 4.78125 -8.140625 4.800781 -7.445312 4.84375 -6.75 C 5.582031 -6.726562 6.320312 -6.71875 7.0625 -6.71875 C 7.320312 -6.644531 7.519531 -6.484375 7.65625 -6.234375 C 7.582031 -5.984375 7.421875 -5.8125 7.171875 -5.71875 C 6.410156 -5.664062 5.632812 -5.628906 4.84375 -5.609375 C 4.84375 -4.710938 4.84375 -3.820312 4.84375 -2.9375 C 4.726562 -2.707031 4.566406 -2.523438 4.359375 -2.390625 C 4.203125 -2.390625 4.078125 -2.425781 3.984375 -2.5 C 3.753906 -3.488281 3.648438 -4.535156 3.671875 -5.640625 L 1.625 -5.640625 C 1.09375 -5.691406 0.664062 -5.878906 0.34375 -6.203125 C 1.195312 -6.617188 2.222656 -6.769531 3.421875 -6.65625 C 3.609375 -7.34375 3.679688 -8.113281 3.640625 -8.96875 Z M 3.640625 -8.96875 "/></g></g></g></svg>