<svg xmlns="http://www.w3.org/2000/svg" xmlns:xlink="http://www.w3.org/1999/xlink" width="154" zoomAndPan="magnify" viewBox="0 0 115.5 30.000001" height="40" preserveAspectRatio="xMidYMid meet" version="1.0"><defs><g/></defs><g fill="#f9fafb" fill-opacity="1"><g transform="translate(21.987455, 17.554034)"><g><path d="M 1.390625 -0.875 C 1.390625 -0.625 1.476562 -0.421875 1.65625 -0.265625 C 1.832031 -0.0859375 2.035156 0 2.265625 0 C 2.367188 0 2.457031 -0.0078125 2.53125 -0.03125 L 8.03125 -0.03125 C 8.25 -0.03125 8.445312 -0.117188 8.625 -0.296875 C 8.800781 -0.453125 8.890625 -0.65625 8.890625 -0.90625 C 8.890625 -1.132812 8.800781 -1.335938 8.625 -1.515625 C 8.445312 -1.660156 8.25 -1.734375 8.03125 -1.734375 L 3.140625 -1.734375 L 3.140625 -5.640625 L 8.171875 -5.640625 C 8.398438 -5.640625 8.601562 -5.726562 8.78125 -5.90625 C 8.957031 -6.0625 9.046875 -6.265625 9.046875 -6.515625 C 9.046875 -6.742188 8.957031 -6.945312 8.78125 -7.125 C 8.601562 -7.300781 8.398438 -7.390625 8.171875 -7.390625 L 3.140625 -7.390625 L 3.140625 -11.40625 L 8.03125 -11.40625 C 8.25 -11.40625 8.445312 -11.476562 8.625 -11.625 C 8.800781 -11.800781 8.890625 -12.003906 8.890625 -12.234375 C 8.890625 -12.484375 8.800781 -12.6875 8.625 -12.84375 C 8.445312 -13.019531 8.25 -13.109375 8.03125 -13.109375 L 2.265625 -13.109375 C 2.015625 -13.109375 1.8125 -13.019531 1.65625 -12.84375 C 1.476562 -12.6875 1.390625 -12.484375 1.390625 -12.234375 C 1.390625 -12.203125 1.390625 -12.164062 1.390625 -12.125 Z M 1.390625 -0.875 "/></g></g></g><g fill="#f9fafb" fill-opacity="1"><g transform="translate(34.635847, 17.554034)"><g><path d="M 11.40625 -12.953125 C 10.84375 -12.953125 10.5625 -12.675781 10.5625 -12.125 L 10.5625 -4.96875 C 10.5625 -4.40625 10.84375 -4.125 11.40625 -4.125 C 11.957031 -4.125 12.234375 -4.40625 12.234375 -4.96875 L 12.234375 -12.125 C 12.234375 -12.675781 11.957031 -12.953125 11.40625 -12.953125 Z M 2.84375 -12.578125 C 2.507812 -13.023438 2.128906 -13.085938 1.703125 -12.765625 L 1.59375 -12.6875 C 1.414062 -12.53125 1.328125 -12.328125 1.328125 -12.078125 L 1.328125 -1.140625 C 1.328125 -0.578125 1.601562 -0.296875 2.15625 -0.296875 C 2.71875 -0.296875 3 -0.578125 3 -1.140625 L 3 -9.734375 L 10.5 -0.375 C 10.820312 0.0703125 11.210938 0.132812 11.671875 -0.1875 C 12.117188 -0.519531 12.179688 -0.910156 11.859375 -1.359375 Z M 2.84375 -12.578125 "/></g></g></g><g fill="#f9fafb" fill-opacity="1"><g transform="translate(50.616265, 17.554034)"><g><path d="M 9.390625 -11.40625 C 9.953125 -11.40625 10.234375 -11.691406 10.234375 -12.265625 C 10.234375 -12.828125 9.953125 -13.109375 9.390625 -13.109375 L 5.375 -13.109375 C 4.46875 -13.128906 3.660156 -12.800781 2.953125 -12.125 C 2.117188 -11.363281 1.726562 -10.363281 1.78125 -9.125 C 1.832031 -7.789062 2.375 -6.832031 3.40625 -6.25 C 3.789062 -6.050781 4.234375 -5.898438 4.734375 -5.796875 C 5.085938 -5.722656 5.46875 -5.6875 5.875 -5.6875 L 7.125 -5.640625 L 7.390625 -5.609375 C 7.660156 -5.578125 7.898438 -5.5 8.109375 -5.375 C 8.765625 -5.050781 9.066406 -4.429688 9.015625 -3.515625 C 8.960938 -2.328125 8.03125 -1.722656 6.21875 -1.703125 L 3.59375 -1.703125 C 3.039062 -1.703125 2.765625 -1.425781 2.765625 -0.875 C 2.765625 -0.289062 3.039062 0 3.59375 0 L 6.78125 0 C 7.238281 0 7.644531 -0.0234375 8 -0.078125 C 8.5 -0.148438 8.925781 -0.300781 9.28125 -0.53125 C 10.238281 -1.0625 10.742188 -2.035156 10.796875 -3.453125 C 10.847656 -4.679688 10.484375 -5.664062 9.703125 -6.40625 C 9.015625 -7.03125 8.15625 -7.34375 7.125 -7.34375 L 6.171875 -7.34375 C 4.484375 -7.375 3.613281 -8.003906 3.5625 -9.234375 C 3.507812 -9.941406 3.6875 -10.507812 4.09375 -10.9375 C 4.394531 -11.25 4.722656 -11.40625 5.078125 -11.40625 Z M 9.390625 -11.40625 "/></g></g></g><g fill="#3641f5" fill-opacity="1"><g transform="translate(64.590288, 17.554034)"><g><path d="M 1.78125 -0.078125 C 1.988281 -0.00390625 2.179688 -0.00390625 2.359375 -0.078125 C 2.535156 -0.179688 2.660156 -0.332031 2.734375 -0.53125 L 5.578125 -8.9375 C 5.648438 -9.132812 5.632812 -9.347656 5.53125 -9.578125 C 5.457031 -9.785156 5.332031 -9.925781 5.15625 -10 C 4.957031 -10.070312 4.769531 -10.054688 4.59375 -9.953125 C 4.414062 -9.878906 4.285156 -9.726562 4.203125 -9.5 L 1.375 -1.140625 C 1.289062 -0.910156 1.300781 -0.695312 1.40625 -0.5 C 1.476562 -0.289062 1.601562 -0.148438 1.78125 -0.078125 Z M 9.46875 -0.53125 C 9.550781 -0.332031 9.679688 -0.179688 9.859375 -0.078125 C 10.035156 -0.00390625 10.222656 -0.00390625 10.421875 -0.078125 C 10.597656 -0.148438 10.722656 -0.289062 10.796875 -0.5 C 10.878906 -0.695312 10.894531 -0.910156 10.84375 -1.140625 L 6.859375 -12.578125 C 6.785156 -12.804688 6.660156 -12.96875 6.484375 -13.0625 C 6.304688 -13.132812 6.117188 -13.132812 5.921875 -13.0625 C 5.742188 -12.988281 5.601562 -12.851562 5.5 -12.65625 C 5.425781 -12.425781 5.425781 -12.207031 5.5 -12 Z M 9.46875 -0.53125 "/></g></g></g><g fill="#f9fafb" fill-opacity="1"><g transform="translate(78.904857, 17.554034)"><g><path d="M 11.515625 -12.3125 C 11.484375 -12.488281 11.394531 -12.648438 11.25 -12.796875 L 11.0625 -12.953125 L 10.984375 -12.984375 L 10.828125 -13.03125 L 10.640625 -13.03125 L 10.609375 -12.984375 L 10.375 -12.921875 L 10.34375 -12.921875 C 10.1875 -12.816406 10.082031 -12.675781 10.03125 -12.5 L 10 -12.5 L 7.046875 -3.859375 L 4.09375 -12.5 L 3.984375 -12.71875 L 3.828125 -12.875 L 3.75 -12.921875 L 3.5625 -12.984375 L 3.484375 -13.03125 L 3.25 -13.03125 L 3.140625 -12.984375 L 3.109375 -12.984375 L 2.875 -12.796875 L 2.796875 -12.71875 L 2.6875 -12.53125 L 2.6875 -12.453125 L 2.609375 -12.3125 L 1.21875 -0.984375 C 1.164062 -0.398438 1.390625 -0.0703125 1.890625 0 C 2.367188 0.0703125 2.648438 -0.164062 2.734375 -0.71875 L 2.734375 -0.75 L 3.75 -8.78125 L 6.328125 -1.21875 C 6.453125 -0.832031 6.691406 -0.65625 7.046875 -0.6875 C 7.398438 -0.65625 7.640625 -0.832031 7.765625 -1.21875 L 7.796875 -1.21875 L 10.375 -8.78125 L 11.40625 -0.75 L 11.40625 -0.71875 C 11.476562 -0.164062 11.753906 0.0703125 12.234375 0 C 12.734375 -0.0703125 12.960938 -0.398438 12.921875 -0.984375 Z M 11.515625 -12.3125 "/></g></g></g><g fill="#3641f5" fill-opacity="1"><g transform="translate(21.909019, 25.821153)"><g><path d="M 3.546875 0 C 4.296875 0 4.921875 -0.269531 5.421875 -0.8125 C 5.910156 -1.351562 6.175781 -2.039062 6.21875 -2.875 L 6.234375 -2.9375 C 6.234375 -3.195312 6.109375 -3.335938 5.859375 -3.359375 L 2.828125 -3.359375 C 2.566406 -3.335938 2.4375 -3.195312 2.4375 -2.9375 C 2.4375 -2.65625 2.570312 -2.515625 2.84375 -2.515625 L 5.40625 -2.515625 C 5.175781 -1.421875 4.554688 -0.875 3.546875 -0.875 C 2.953125 -0.875 2.445312 -1.113281 2.03125 -1.59375 C 1.613281 -2.0625 1.40625 -2.628906 1.40625 -3.296875 C 1.40625 -3.953125 1.613281 -4.515625 2.03125 -4.984375 C 2.457031 -5.460938 2.96875 -5.703125 3.5625 -5.703125 C 4.257812 -5.703125 4.820312 -5.347656 5.25 -4.640625 C 5.320312 -4.492188 5.441406 -4.421875 5.609375 -4.421875 C 5.867188 -4.421875 6 -4.566406 6 -4.859375 L 5.96875 -5.046875 L 5.96875 -5.0625 L 5.890625 -5.171875 C 5.304688 -6.109375 4.53125 -6.578125 3.5625 -6.578125 C 2.738281 -6.578125 2.039062 -6.253906 1.46875 -5.609375 C 0.894531 -4.960938 0.609375 -4.191406 0.609375 -3.296875 C 0.609375 -2.378906 0.890625 -1.601562 1.453125 -0.96875 C 2.023438 -0.320312 2.722656 0 3.546875 0 Z M 3.546875 0 "/></g></g></g><g fill="#3641f5" fill-opacity="1"><g transform="translate(29.969409, 25.821153)"><g><path d="M 3.171875 -2.609375 C 2.878906 -2.609375 2.734375 -2.472656 2.734375 -2.203125 L 2.734375 -2.140625 C 2.742188 -2.054688 2.78125 -1.972656 2.84375 -1.890625 L 4.296875 -0.171875 C 4.492188 0.046875 4.695312 0.0625 4.90625 -0.125 C 5.125 -0.320312 5.140625 -0.523438 4.953125 -0.734375 L 3.53125 -2.421875 C 3.4375 -2.546875 3.316406 -2.609375 3.171875 -2.609375 Z M 1.5625 -5.671875 L 3.359375 -5.671875 L 3.359375 -5.640625 L 3.4375 -5.640625 C 3.5 -5.640625 3.566406 -5.632812 3.640625 -5.625 C 3.859375 -5.59375 4.015625 -5.519531 4.109375 -5.40625 C 4.234375 -5.289062 4.296875 -5.113281 4.296875 -4.875 C 4.285156 -4.25 3.957031 -3.941406 3.3125 -3.953125 L 3.3125 -3.9375 L 1.5625 -3.9375 Z M 0.703125 -3.453125 L 0.703125 -0.453125 C 0.703125 -0.160156 0.847656 -0.015625 1.140625 -0.015625 C 1.421875 -0.015625 1.5625 -0.160156 1.5625 -0.453125 L 1.5625 -3.09375 L 3.3125 -3.09375 L 3.296875 -3.0625 L 3.359375 -3.0625 C 4.546875 -3.0625 5.15625 -3.660156 5.1875 -4.859375 C 5.1875 -5.128906 5.140625 -5.375 5.046875 -5.59375 C 4.960938 -5.769531 4.859375 -5.921875 4.734375 -6.046875 C 4.515625 -6.265625 4.21875 -6.410156 3.84375 -6.484375 C 3.726562 -6.503906 3.609375 -6.519531 3.484375 -6.53125 L 3.296875 -6.53125 L 3.296875 -6.515625 L 1.140625 -6.515625 C 0.847656 -6.515625 0.703125 -6.367188 0.703125 -6.078125 Z M 0.703125 -3.453125 "/></g></g></g><g fill="#3641f5" fill-opacity="1"><g transform="translate(36.797178, 25.821153)"><g><path d="M 0.890625 -0.03125 C 0.992188 0 1.085938 0 1.171875 -0.03125 C 1.265625 -0.0820312 1.332031 -0.160156 1.375 -0.265625 L 2.78125 -4.46875 C 2.820312 -4.570312 2.816406 -4.679688 2.765625 -4.796875 C 2.734375 -4.898438 2.671875 -4.96875 2.578125 -5 C 2.472656 -5.039062 2.378906 -5.035156 2.296875 -4.984375 C 2.203125 -4.941406 2.140625 -4.863281 2.109375 -4.75 L 0.6875 -0.5625 C 0.644531 -0.445312 0.648438 -0.34375 0.703125 -0.25 C 0.742188 -0.144531 0.804688 -0.0703125 0.890625 -0.03125 Z M 4.734375 -0.265625 C 4.773438 -0.160156 4.84375 -0.0820312 4.9375 -0.03125 C 5.019531 0 5.113281 0 5.21875 -0.03125 C 5.300781 -0.0703125 5.363281 -0.144531 5.40625 -0.25 C 5.445312 -0.34375 5.453125 -0.445312 5.421875 -0.5625 L 3.4375 -6.296875 C 3.394531 -6.410156 3.332031 -6.488281 3.25 -6.53125 C 3.15625 -6.570312 3.054688 -6.570312 2.953125 -6.53125 C 2.867188 -6.5 2.800781 -6.429688 2.75 -6.328125 C 2.707031 -6.210938 2.707031 -6.101562 2.75 -6 Z M 4.734375 -0.265625 "/></g></g></g><g fill="#3641f5" fill-opacity="1"><g transform="translate(43.966288, 25.821153)"><g><path d="M 0.6875 0 L 2.625 0 C 3.03125 0 3.421875 -0.0859375 3.796875 -0.265625 C 4.148438 -0.429688 4.46875 -0.660156 4.75 -0.953125 C 5.019531 -1.253906 5.234375 -1.597656 5.390625 -1.984375 C 5.535156 -2.390625 5.609375 -2.816406 5.609375 -3.265625 C 5.609375 -3.703125 5.535156 -4.117188 5.390625 -4.515625 C 5.234375 -4.898438 5.019531 -5.242188 4.75 -5.546875 C 4.476562 -5.847656 4.160156 -6.082031 3.796875 -6.25 C 3.429688 -6.414062 3.050781 -6.503906 2.65625 -6.515625 C 2.539062 -6.515625 2.445312 -6.472656 2.375 -6.390625 C 2.300781 -6.296875 2.265625 -6.191406 2.265625 -6.078125 C 2.265625 -5.953125 2.300781 -5.847656 2.375 -5.765625 C 2.445312 -5.679688 2.539062 -5.640625 2.65625 -5.640625 L 2.671875 -5.640625 C 2.960938 -5.628906 3.242188 -5.5625 3.515625 -5.4375 C 3.765625 -5.3125 3.988281 -5.140625 4.1875 -4.921875 C 4.382812 -4.710938 4.535156 -4.460938 4.640625 -4.171875 C 4.753906 -3.878906 4.8125 -3.578125 4.8125 -3.265625 C 4.8125 -2.929688 4.753906 -2.617188 4.640625 -2.328125 C 4.535156 -2.035156 4.378906 -1.785156 4.171875 -1.578125 C 3.972656 -1.347656 3.738281 -1.175781 3.46875 -1.0625 C 3.207031 -0.9375 2.925781 -0.875 2.625 -0.875 L 1.484375 -0.875 L 1.484375 -6.109375 C 1.484375 -6.210938 1.4375 -6.3125 1.34375 -6.40625 C 1.269531 -6.476562 1.179688 -6.515625 1.078125 -6.515625 C 0.984375 -6.515625 0.894531 -6.476562 0.8125 -6.40625 C 0.738281 -6.3125 0.695312 -6.210938 0.6875 -6.109375 Z M 0.6875 0 "/></g></g></g><g fill="#3641f5" fill-opacity="1"><g transform="translate(51.419849, 25.821153)"><g><path d="M 0.703125 -0.4375 C 0.703125 -0.3125 0.75 -0.207031 0.84375 -0.125 C 0.925781 -0.0390625 1.023438 0 1.140625 0 C 1.191406 0 1.238281 -0.00390625 1.28125 -0.015625 L 4.03125 -0.015625 C 4.132812 -0.015625 4.234375 -0.0625 4.328125 -0.15625 C 4.410156 -0.226562 4.453125 -0.328125 4.453125 -0.453125 C 4.453125 -0.566406 4.410156 -0.671875 4.328125 -0.765625 C 4.234375 -0.835938 4.132812 -0.875 4.03125 -0.875 L 1.578125 -0.875 L 1.578125 -2.828125 L 4.09375 -2.828125 C 4.207031 -2.828125 4.3125 -2.867188 4.40625 -2.953125 C 4.488281 -3.023438 4.53125 -3.128906 4.53125 -3.265625 C 4.53125 -3.378906 4.488281 -3.476562 4.40625 -3.5625 C 4.3125 -3.65625 4.207031 -3.703125 4.09375 -3.703125 L 1.578125 -3.703125 L 1.578125 -5.703125 L 4.03125 -5.703125 C 4.132812 -5.703125 4.234375 -5.738281 4.328125 -5.8125 C 4.410156 -5.90625 4.453125 -6.007812 4.453125 -6.125 C 4.453125 -6.25 4.410156 -6.347656 4.328125 -6.421875 C 4.234375 -6.515625 4.132812 -6.5625 4.03125 -6.5625 L 1.140625 -6.5625 C 1.015625 -6.5625 0.914062 -6.515625 0.84375 -6.421875 C 0.75 -6.347656 0.703125 -6.25 0.703125 -6.125 C 0.703125 -6.113281 0.703125 -6.09375 0.703125 -6.0625 Z M 0.703125 -0.4375 "/></g></g></g><g fill="#f9fafb" fill-opacity="1"><g transform="translate(57.754769, 25.821153)"><g><path d="M 5.53125 -6.078125 C 5.519531 -6.359375 5.382812 -6.5 5.125 -6.5 C 4.832031 -6.5 4.6875 -6.351562 4.6875 -6.0625 L 4.6875 -3.984375 L 1.65625 -3.984375 L 1.65625 -6.078125 C 1.632812 -6.359375 1.488281 -6.5 1.21875 -6.5 C 0.9375 -6.5 0.796875 -6.351562 0.796875 -6.0625 L 0.796875 -0.421875 C 0.796875 -0.140625 0.9375 0 1.21875 0 C 1.488281 0 1.632812 -0.140625 1.65625 -0.421875 L 1.65625 -3.125 L 4.6875 -3.125 L 4.6875 -0.421875 C 4.6875 -0.140625 4.832031 0 5.125 0 C 5.382812 0 5.519531 -0.140625 5.53125 -0.421875 Z M 5.53125 -6.078125 "/></g></g></g><g fill="#f9fafb" fill-opacity="1"><g transform="translate(65.20833, 25.821153)"><g><path d="M 3.640625 -0.890625 C 3.003906 -0.890625 2.46875 -1.117188 2.03125 -1.578125 C 1.582031 -2.046875 1.359375 -2.609375 1.359375 -3.265625 C 1.359375 -3.921875 1.582031 -4.472656 2.03125 -4.921875 C 2.46875 -5.390625 3.003906 -5.625 3.640625 -5.625 C 4.253906 -5.625 4.785156 -5.390625 5.234375 -4.921875 C 5.671875 -4.472656 5.890625 -3.921875 5.890625 -3.265625 C 5.890625 -2.609375 5.671875 -2.046875 5.234375 -1.578125 C 4.785156 -1.117188 4.253906 -0.890625 3.640625 -0.890625 Z M 3.640625 -6.5 C 2.773438 -6.5 2.039062 -6.179688 1.4375 -5.546875 C 0.832031 -4.921875 0.53125 -4.160156 0.53125 -3.265625 C 0.53125 -2.367188 0.832031 -1.601562 1.4375 -0.96875 C 2.039062 -0.332031 2.773438 -0.015625 3.640625 -0.015625 C 4.484375 -0.015625 5.207031 -0.332031 5.8125 -0.96875 C 6.425781 -1.601562 6.734375 -2.367188 6.734375 -3.265625 C 6.734375 -4.160156 6.425781 -4.921875 5.8125 -5.546875 C 5.207031 -6.179688 4.484375 -6.5 3.640625 -6.5 Z M 3.640625 -6.5 "/></g></g></g><g fill="#f9fafb" fill-opacity="1"><g transform="translate(73.629026, 25.821153)"><g><path d="M 5.15625 -6.515625 C 4.875 -6.515625 4.734375 -6.378906 4.734375 -6.109375 L 4.734375 -2.546875 L 4.71875 -2.546875 L 4.71875 -2.34375 C 4.71875 -2.25 4.703125 -2.15625 4.671875 -2.0625 C 4.609375 -1.789062 4.5 -1.554688 4.34375 -1.359375 C 4.039062 -1.035156 3.59375 -0.859375 3 -0.828125 C 2.46875 -0.816406 2.0625 -0.953125 1.78125 -1.234375 C 1.570312 -1.421875 1.429688 -1.679688 1.359375 -2.015625 C 1.335938 -2.109375 1.320312 -2.210938 1.3125 -2.328125 L 1.3125 -2.515625 L 1.28125 -2.515625 L 1.28125 -6.109375 C 1.28125 -6.378906 1.144531 -6.515625 0.875 -6.515625 C 0.59375 -6.515625 0.453125 -6.378906 0.453125 -6.109375 L 0.453125 -2.34375 L 0.484375 -2.203125 C 0.515625 -1.941406 0.570312 -1.691406 0.65625 -1.453125 C 0.769531 -1.128906 0.941406 -0.859375 1.171875 -0.640625 C 1.597656 -0.210938 2.164062 0 2.875 0 L 3.015625 0 C 3.859375 -0.0390625 4.5 -0.304688 4.9375 -0.796875 C 5.144531 -1.023438 5.304688 -1.289062 5.421875 -1.59375 C 5.492188 -1.8125 5.535156 -2.03125 5.546875 -2.25 L 5.5625 -2.34375 L 5.5625 -6.109375 C 5.5625 -6.378906 5.425781 -6.515625 5.15625 -6.515625 Z M 5.15625 -6.515625 "/></g></g></g><g fill="#f9fafb" fill-opacity="1"><g transform="translate(81.025697, 25.821153)"><g><path d="M 4.6875 -5.703125 C 4.96875 -5.703125 5.109375 -5.847656 5.109375 -6.140625 C 5.109375 -6.421875 4.96875 -6.5625 4.6875 -6.5625 L 2.6875 -6.5625 C 2.226562 -6.570312 1.820312 -6.40625 1.46875 -6.0625 C 1.050781 -5.6875 0.859375 -5.1875 0.890625 -4.5625 C 0.910156 -3.894531 1.179688 -3.414062 1.703125 -3.125 C 1.890625 -3.019531 2.109375 -2.945312 2.359375 -2.90625 C 2.535156 -2.863281 2.726562 -2.84375 2.9375 -2.84375 L 3.5625 -2.828125 L 3.6875 -2.8125 C 3.820312 -2.789062 3.941406 -2.75 4.046875 -2.6875 C 4.378906 -2.519531 4.53125 -2.210938 4.5 -1.765625 C 4.476562 -1.171875 4.007812 -0.867188 3.09375 -0.859375 L 1.796875 -0.859375 C 1.515625 -0.859375 1.375 -0.71875 1.375 -0.4375 C 1.375 -0.144531 1.515625 0 1.796875 0 L 3.390625 0 C 3.609375 0 3.804688 -0.0078125 3.984375 -0.03125 C 4.242188 -0.0703125 4.460938 -0.148438 4.640625 -0.265625 C 5.117188 -0.523438 5.367188 -1.007812 5.390625 -1.71875 C 5.421875 -2.34375 5.238281 -2.835938 4.84375 -3.203125 C 4.5 -3.515625 4.070312 -3.671875 3.5625 -3.671875 L 3.078125 -3.671875 C 2.234375 -3.691406 1.800781 -4.007812 1.78125 -4.625 C 1.75 -4.976562 1.835938 -5.265625 2.046875 -5.484375 C 2.191406 -5.628906 2.351562 -5.703125 2.53125 -5.703125 Z M 4.6875 -5.703125 "/></g></g></g><g fill="#f9fafb" fill-opacity="1"><g transform="translate(88.024136, 25.821153)"><g><path d="M 0.703125 -0.4375 C 0.703125 -0.3125 0.75 -0.207031 0.84375 -0.125 C 0.925781 -0.0390625 1.023438 0 1.140625 0 C 1.191406 0 1.238281 -0.00390625 1.28125 -0.015625 L 4.03125 -0.015625 C 4.132812 -0.015625 4.234375 -0.0625 4.328125 -0.15625 C 4.410156 -0.226562 4.453125 -0.328125 4.453125 -0.453125 C 4.453125 -0.566406 4.410156 -0.671875 4.328125 -0.765625 C 4.234375 -0.835938 4.132812 -0.875 4.03125 -0.875 L 1.578125 -0.875 L 1.578125 -2.828125 L 4.09375 -2.828125 C 4.207031 -2.828125 4.3125 -2.867188 4.40625 -2.953125 C 4.488281 -3.023438 4.53125 -3.128906 4.53125 -3.265625 C 4.53125 -3.378906 4.488281 -3.476562 4.40625 -3.5625 C 4.3125 -3.65625 4.207031 -3.703125 4.09375 -3.703125 L 1.578125 -3.703125 L 1.578125 -5.703125 L 4.03125 -5.703125 C 4.132812 -5.703125 4.234375 -5.738281 4.328125 -5.8125 C 4.410156 -5.90625 4.453125 -6.007812 4.453125 -6.125 C 4.453125 -6.25 4.410156 -6.347656 4.328125 -6.421875 C 4.234375 -6.515625 4.132812 -6.5625 4.03125 -6.5625 L 1.140625 -6.5625 C 1.015625 -6.5625 0.914062 -6.515625 0.84375 -6.421875 C 0.75 -6.347656 0.703125 -6.25 0.703125 -6.125 C 0.703125 -6.113281 0.703125 -6.09375 0.703125 -6.0625 Z M 0.703125 -0.4375 "/></g></g></g><path stroke-linecap="butt" transform="matrix(0.00000000126677, 0.725806, -0.725806, 0.00000000126677, 73.414026, 4.60183)" fill="none" stroke-linejoin="miter" d="M -0.000368699 0.50047 L 10.768902 0.50047 " stroke="#3641f5" stroke-width="1" stroke-opacity="1" stroke-miterlimit="4"/><path stroke-linecap="butt" transform="matrix(-0.725193, 0.0298356, -0.0298356, -0.725193, 41.043778, 23.891688)" fill="none" stroke-linejoin="miter" d="M 0.00198887 0.502492 L 3.330971 0.499402 " stroke="#3641f5" stroke-width="1" stroke-opacity="1" stroke-miterlimit="4"/><g fill="#f9fafb" fill-opacity="1"><g transform="translate(40.287432, 21.677772)"><g><path d="M 1.484375 -3.640625 C 1.523438 -3.785156 1.609375 -3.867188 1.734375 -3.890625 C 1.835938 -3.816406 1.90625 -3.71875 1.9375 -3.59375 C 1.9375 -3.3125 1.945312 -3.03125 1.96875 -2.75 C 2.269531 -2.738281 2.570312 -2.734375 2.875 -2.734375 C 2.976562 -2.703125 3.054688 -2.632812 3.109375 -2.53125 C 3.078125 -2.425781 3.007812 -2.359375 2.90625 -2.328125 C 2.601562 -2.304688 2.289062 -2.289062 1.96875 -2.28125 C 1.96875 -1.914062 1.96875 -1.554688 1.96875 -1.203125 C 1.925781 -1.109375 1.859375 -1.03125 1.765625 -0.96875 C 1.703125 -0.96875 1.65625 -0.984375 1.625 -1.015625 C 1.53125 -1.421875 1.484375 -1.847656 1.484375 -2.296875 L 0.65625 -2.296875 C 0.445312 -2.316406 0.273438 -2.390625 0.140625 -2.515625 C 0.484375 -2.679688 0.898438 -2.742188 1.390625 -2.703125 C 1.460938 -2.984375 1.492188 -3.296875 1.484375 -3.640625 Z M 1.484375 -3.640625 "/></g></g></g></svg>